<svg width="22" height="20" viewBox="0 0 22 20" fill="none" xmlns="http://www.w3.org/2000/svg">
<path fill-rule="evenodd" clip-rule="evenodd" d="M0 5.89355C0 2.62884 2.64221 0 5.87931 0C7.55645 0 9.00749 0.911571 9.98323 1.72905C10.3926 2.07199 10.7365 2.41374 11 2.69749C11.2635 2.41374 11.6074 2.07199 12.0168 1.72905C12.9925 0.911571 14.4436 0 16.1207 0C19.3578 0 22 2.62884 22 5.89355C22 7.14777 21.7515 9.21204 20.3474 11.6741C18.946 14.1318 16.4171 16.9439 11.9208 19.7381L11.9178 19.7399C11.6411 19.9101 11.3236 20 11 20C10.6764 20 10.3589 19.9101 10.0822 19.7399L10.0792 19.7381C5.58286 16.9439 3.05404 14.1318 1.65256 11.6741C0.248524 9.21204 0 7.14777 0 5.89355ZM11.607 4.33621L11.6073 4.33589L11.6096 4.3328L11.6248 4.31289C11.6391 4.29427 11.6617 4.26523 11.6922 4.22726C11.7533 4.15126 11.8456 4.03991 11.9656 3.90501C12.2067 3.63422 12.555 3.27376 12.9832 2.91505C13.8609 2.17971 14.9702 1.53846 16.1207 1.53846C18.5389 1.53846 20.4828 3.49769 20.4828 5.89355C20.4828 6.92405 20.2832 8.71336 19.034 10.904C17.7823 13.0989 15.4532 15.7382 11.1299 18.4251C11.0909 18.4489 11.0459 18.4615 11 18.4615C10.9541 18.4615 10.9091 18.4489 10.8701 18.4251C6.54682 15.7382 4.21765 13.0989 2.96603 10.904C1.71678 8.71336 1.51724 6.92405 1.51724 5.89355C1.51724 3.49769 3.46112 1.53846 5.87931 1.53846C7.02982 1.53846 8.13912 2.17971 9.01681 2.91505C9.44496 3.27376 9.79333 3.63422 10.0344 3.90501C10.1544 4.03991 10.2467 4.15126 10.3078 4.22726C10.3383 4.26523 10.3609 4.29427 10.3752 4.31289L10.3904 4.3328L10.3927 4.33589" fill="black"/>
</svg>
