<svg width="222" height="28" viewBox="0 0 222 28" fill="none" xmlns="http://www.w3.org/2000/svg">
<g clip-path="url(#clip0_4_29)">
<path d="M0.71975 0.0480939C0.79251 0.515002 0.857209 0.989961 0.946138 1.45687C1.16019 2.68126 1.62438 3.84886 2.30995 4.88739C2.99552 5.92592 3.88787 6.81326 4.93177 7.49448C7.10052 8.87312 9.35221 10.1179 11.6742 11.2217C14.8514 12.7754 18.1418 14.1359 20.939 16.3577C21.7474 16.9695 22.4427 17.6457 23.2835 18.3702L21.0926 20.7853C20.2753 19.943 19.3912 19.1677 18.449 18.4668C16.2257 17.058 13.9378 15.7539 11.6338 14.4418C9.3297 13.1296 6.78311 12.0267 4.52755 10.5696C2.10221 9.04816 0.315539 6.9068 0.0244982 3.9363C0.00413317 2.6134 0.096106 1.29118 0.299392 -0.0162964L0.71975 0.0480939Z" fill="black"/>
<path d="M12.9271 21.9447L15.2392 23.8928C15.5141 24.1182 15.7728 24.4403 16.0477 24.5047C16.2343 24.5454 16.4274 24.5479 16.615 24.5119C16.8027 24.4759 16.981 24.4022 17.1391 24.2953C17.2094 24.1376 17.2381 23.9647 17.2226 23.7928C17.207 23.6209 17.1476 23.4559 17.0502 23.3132C16.2155 22.4145 15.2889 21.6051 14.2853 20.8982C12.5875 19.8034 10.7928 18.8695 9.01419 17.9035C8.70245 17.755 8.35112 17.7099 8.01173 17.7747C6.00678 18.2175 5.14983 17.9196 3.9695 16.2613C3.63804 15.7944 3.34699 15.2953 3.00745 14.764C4.10974 14.2389 5.36818 14.1385 6.54035 14.4822C11.392 15.4973 15.8418 17.8973 19.3462 21.3893C19.9094 21.8609 20.286 22.5164 20.4089 23.2389C20.5318 23.9613 20.393 24.7038 20.0171 25.3338C19.5812 26.0309 18.9479 26.5841 18.197 26.9236C17.4461 27.263 16.6111 27.3737 15.7971 27.2417C14.0185 26.9519 12.7654 25.9054 12.5633 24.3758C12.5985 23.555 12.7204 22.7401 12.9271 21.9447V21.9447Z" fill="black"/>
<path d="M18.6185 12.8319C20.4214 12.0269 22.1515 11.2863 23.7845 10.4169C25.5448 9.47099 27.2311 8.3946 28.8292 7.19685C29.8041 6.45006 30.6127 5.51003 31.2041 4.43617C31.7955 3.36231 32.1568 2.17797 32.2651 0.957988C32.2651 0.716484 32.3621 0.474984 32.4591 0.0322266C33.5424 2.74512 33.4616 5.2326 31.9013 7.43834C30.9281 8.82861 29.7124 10.0338 28.3118 10.9965C26.2642 12.2648 24.1453 13.4151 21.9655 14.442C21.8311 14.5034 21.6849 14.5353 21.537 14.5353C21.3891 14.5353 21.243 14.5034 21.1086 14.442C20.3001 13.9831 19.5402 13.4438 18.6185 12.8319Z" fill="black"/>
<path d="M30.0015 14.6834C28.231 18.7085 25.9592 19.0385 22.7255 15.6092C25.1265 14.7478 27.4225 13.8704 30.0015 14.6834Z" fill="black"/>
</g>
<path d="M55.3112 21.7438V6.09969H62.5074C63.6398 6.09969 64.5933 6.25614 65.3681 6.56902C66.1577 6.8819 66.7537 7.32142 67.1559 7.88759C67.5731 8.45375 67.7817 9.11676 67.7817 9.87662C67.7817 10.8153 67.5657 11.59 67.1336 12.2009C66.7164 12.8117 66.0981 13.2215 65.2787 13.4301L65.2116 13.0054C65.897 13.1693 66.4929 13.4375 66.9995 13.81C67.5061 14.1676 67.9009 14.6071 68.184 15.1286C68.4671 15.65 68.6086 16.246 68.6086 16.9164C68.6086 17.7359 68.4596 18.4511 68.1616 19.0619C67.8637 19.6579 67.439 20.157 66.8878 20.5593C66.3514 20.9616 65.7256 21.2595 65.0105 21.4532C64.3102 21.6469 63.5504 21.7438 62.7309 21.7438H55.3112ZM59.7809 17.9445H62.5968C62.8799 17.9445 63.1183 17.8998 63.312 17.8104C63.5057 17.7061 63.6547 17.5571 63.7589 17.3634C63.8632 17.1548 63.9154 16.909 63.9154 16.6259C63.9154 16.3726 63.8558 16.164 63.7366 16.0001C63.6323 15.8214 63.4759 15.6873 63.2673 15.5979C63.0587 15.4936 62.798 15.4414 62.4851 15.4414H59.7809V17.9445ZM59.7809 12.2232H61.6805C62.0232 12.2232 62.2988 12.1785 62.5074 12.0891C62.7309 11.9997 62.8874 11.8731 62.9767 11.7092C63.081 11.5304 63.1332 11.3144 63.1332 11.0611C63.1332 10.7184 63.014 10.4428 62.7756 10.2342C62.5521 10.0107 62.1722 9.89897 61.6358 9.89897H59.7809V12.2232Z" fill="black"/>
<path d="M71.287 21.7438V6.09969H78.6173C79.7049 6.09969 80.6734 6.31573 81.5226 6.74781C82.3719 7.17988 83.0349 7.7684 83.5117 8.51335C83.9884 9.25831 84.2268 10.115 84.2268 11.0834C84.2268 12.1711 83.9884 13.1246 83.5117 13.9441C83.0349 14.7635 82.3719 15.4042 81.5226 15.8661C80.6734 16.313 79.7049 16.5365 78.6173 16.5365H75.8014V21.7438H71.287ZM79.4889 21.7438L75.5108 14.6816L80.4499 14.1229L84.8749 21.7438H79.4889ZM75.8014 13.1842H77.8575C78.2299 13.1842 78.5354 13.1172 78.7737 12.9831C79.027 12.8341 79.2133 12.633 79.3325 12.3797C79.4666 12.1264 79.5336 11.821 79.5336 11.4634C79.5336 11.1356 79.4666 10.86 79.3325 10.6365C79.2133 10.3981 79.0196 10.2193 78.7514 10.1001C78.4981 9.96601 78.1703 9.89897 77.7681 9.89897H75.8014V13.1842Z" fill="black"/>
<path d="M93.9518 21.8778C92.596 21.8778 91.3892 21.6171 90.3313 21.0956C89.2884 20.5593 88.4689 19.8292 87.873 18.9055C87.277 17.9817 86.979 16.9239 86.979 15.732V6.09969H91.851V15.5308C91.851 15.9629 91.9404 16.3503 92.1192 16.693C92.298 17.0207 92.5438 17.2815 92.8567 17.4752C93.1845 17.6688 93.5495 17.7657 93.9518 17.7657C94.3839 17.7657 94.7638 17.6688 95.0916 17.4752C95.4194 17.2815 95.6801 17.0207 95.8738 16.693C96.0675 16.3503 96.1643 15.9629 96.1643 15.5308V6.09969H100.925V15.732C100.925 16.9239 100.627 17.9817 100.031 18.9055C99.4347 19.8292 98.6078 20.5593 97.5499 21.0956C96.507 21.6171 95.3076 21.8778 93.9518 21.8778Z" fill="black"/>
<path d="M108.214 21.7438V10.2118H103.387V6.09969H118.003V10.2118H113.042V21.7438H108.214Z" fill="black"/>
<path d="M127.431 21.8778C126.075 21.8778 124.868 21.6171 123.811 21.0956C122.768 20.5593 121.948 19.8292 121.352 18.9055C120.756 17.9817 120.458 16.9239 120.458 15.732V6.09969H125.33V15.5308C125.33 15.9629 125.42 16.3503 125.599 16.693C125.777 17.0207 126.023 17.2815 126.336 17.4752C126.664 17.6688 127.029 17.7657 127.431 17.7657C127.863 17.7657 128.243 17.6688 128.571 17.4752C128.899 17.2815 129.159 17.0207 129.353 16.693C129.547 16.3503 129.644 15.9629 129.644 15.5308V6.09969H134.404V15.732C134.404 16.9239 134.106 17.9817 133.51 18.9055C132.914 19.8292 132.087 20.5593 131.029 21.0956C129.986 21.6171 128.787 21.8778 127.431 21.8778Z" fill="black"/>
<path d="M143.241 21.9672C142.064 21.9672 141.021 21.8406 140.112 21.5873C139.218 21.3191 138.428 20.9467 137.743 20.4699C137.073 19.9931 136.469 19.4344 135.933 18.7937L138.726 15.6649C139.471 16.6185 140.246 17.2517 141.051 17.5646C141.87 17.8625 142.637 18.0115 143.353 18.0115C143.636 18.0115 143.889 17.9892 144.112 17.9445C144.336 17.8849 144.507 17.7955 144.626 17.6763C144.746 17.5571 144.805 17.3932 144.805 17.1846C144.805 16.9909 144.738 16.827 144.604 16.693C144.485 16.5589 144.321 16.4471 144.112 16.3577C143.904 16.2534 143.673 16.1715 143.42 16.1119C143.181 16.0374 142.943 15.9778 142.705 15.9331C142.481 15.8884 142.28 15.8437 142.101 15.799C141.207 15.5904 140.425 15.3371 139.754 15.0392C139.084 14.7412 138.525 14.3836 138.078 13.9664C137.631 13.5492 137.296 13.0725 137.073 12.5361C136.864 11.9997 136.76 11.3963 136.76 10.7259C136.76 9.96601 136.931 9.2732 137.274 8.64744C137.631 8.02168 138.101 7.48531 138.682 7.03834C139.278 6.59137 139.948 6.24869 140.693 6.0103C141.453 5.77191 142.235 5.65272 143.04 5.65272C144.217 5.65272 145.2 5.76447 145.99 5.98795C146.779 6.19654 147.442 6.50197 147.979 6.90425C148.515 7.30652 148.977 7.77584 149.364 8.31221L146.548 11.0164C146.221 10.7035 145.878 10.4502 145.52 10.2565C145.163 10.048 144.79 9.89897 144.403 9.80957C144.031 9.70528 143.658 9.65313 143.286 9.65313C142.943 9.65313 142.652 9.68293 142.414 9.74253C142.176 9.78722 141.989 9.86917 141.855 9.98836C141.721 10.0927 141.654 10.2416 141.654 10.4353C141.654 10.629 141.736 10.7929 141.9 10.927C142.079 11.0462 142.295 11.1505 142.548 11.2399C142.816 11.3293 143.077 11.4038 143.33 11.4634C143.598 11.5081 143.822 11.5453 144.001 11.5751C144.82 11.7241 145.573 11.9327 146.258 12.2009C146.943 12.4542 147.539 12.7819 148.046 13.1842C148.567 13.5716 148.962 14.0633 149.23 14.6592C149.513 15.2403 149.655 15.9331 149.655 16.7377C149.655 17.8849 149.364 18.8459 148.783 19.6206C148.217 20.3954 147.45 20.9839 146.481 21.3862C145.513 21.7736 144.433 21.9672 143.241 21.9672Z" fill="black"/>
<path d="M159.62 21.7438V7.01599H161.922V21.7438H159.62ZM157.184 12.2456V10.0107H164.649V12.2456H157.184Z" fill="black"/>
<path d="M166.745 21.7438V10.0107H169.069V13.6982L168.845 12.8043C169.009 12.2381 169.285 11.7241 169.672 11.2622C170.075 10.8004 170.529 10.4353 171.036 10.1672C171.557 9.89897 172.093 9.76488 172.645 9.76488C172.898 9.76488 173.136 9.78722 173.36 9.83192C173.598 9.87662 173.785 9.92876 173.919 9.98836L173.315 12.4914C173.136 12.4169 172.935 12.3573 172.712 12.3126C172.503 12.253 172.295 12.2232 172.086 12.2232C171.684 12.2232 171.296 12.3052 170.924 12.4691C170.566 12.6181 170.246 12.8341 169.963 13.1172C169.695 13.3854 169.479 13.7057 169.315 14.0782C169.151 14.4357 169.069 14.8306 169.069 15.2626V21.7438H166.745Z" fill="black"/>
<path d="M179.87 21.9672C179.036 21.9672 178.306 21.7736 177.68 21.3862C177.069 20.9988 176.593 20.455 176.25 19.7547C175.922 19.0545 175.758 18.2201 175.758 17.2517V10.0107H178.06V16.6259C178.06 17.3113 178.165 17.9072 178.373 18.4138C178.597 18.9055 178.909 19.2854 179.312 19.5536C179.729 19.8218 180.228 19.9559 180.809 19.9559C181.241 19.9559 181.636 19.8888 181.994 19.7547C182.351 19.6057 182.657 19.4046 182.91 19.1513C183.178 18.898 183.387 18.5926 183.536 18.235C183.685 17.8774 183.759 17.4901 183.759 17.0729V10.0107H186.061V21.7438H183.759V19.2854L184.161 19.0172C183.983 19.5685 183.677 20.0676 183.245 20.5146C182.828 20.9616 182.329 21.3191 181.748 21.5873C181.167 21.8406 180.541 21.9672 179.87 21.9672Z" fill="black"/>
<path d="M194.274 21.9672C193.186 21.9672 192.21 21.6991 191.346 21.1627C190.497 20.6263 189.819 19.8963 189.312 18.9725C188.82 18.0488 188.575 17.0133 188.575 15.8661C188.575 14.7188 188.82 13.6833 189.312 12.7596C189.819 11.8359 190.497 11.1058 191.346 10.5694C192.21 10.0331 193.186 9.76488 194.274 9.76488C195.316 9.76488 196.263 9.98091 197.112 10.413C197.976 10.8302 198.631 11.4038 199.078 12.1338L197.805 13.6982C197.566 13.3556 197.261 13.0427 196.888 12.7596C196.516 12.4765 196.121 12.253 195.704 12.0891C195.287 11.9252 194.884 11.8433 194.497 11.8433C193.782 11.8433 193.141 12.0221 192.575 12.3797C192.024 12.7223 191.584 13.1991 191.256 13.81C190.929 14.4208 190.765 15.1062 190.765 15.8661C190.765 16.6259 190.936 17.3113 191.279 17.9221C191.621 18.5181 192.076 18.9949 192.642 19.3524C193.208 19.71 193.834 19.8888 194.519 19.8888C194.922 19.8888 195.309 19.8218 195.681 19.6877C196.069 19.5536 196.441 19.3524 196.799 19.0843C197.156 18.8161 197.492 18.4883 197.805 18.1009L199.078 19.6653C198.602 20.3358 197.916 20.8871 197.022 21.3191C196.143 21.7512 195.227 21.9672 194.274 21.9672Z" fill="black"/>
<path d="M203.351 18.0786L203.239 15.5755L208.848 10.0107H211.955L203.351 18.0786ZM201.25 21.7438V5.20575H203.552V21.7438H201.25ZM209.161 21.7438L204.736 16.5812L206.368 15.0839L212.111 21.7438H209.161Z" fill="black"/>
<path d="M217.754 21.9672C216.77 21.9672 215.884 21.7959 215.094 21.4532C214.305 21.1105 213.649 20.604 213.128 19.9335L214.692 18.5926C215.139 19.1141 215.623 19.494 216.145 19.7324C216.681 19.9559 217.284 20.0676 217.955 20.0676C218.223 20.0676 218.469 20.0378 218.692 19.9782C218.931 19.9037 219.132 19.7994 219.296 19.6653C219.475 19.5312 219.609 19.3748 219.698 19.196C219.787 19.0023 219.832 18.7937 219.832 18.5702C219.832 18.1829 219.691 17.87 219.408 17.6316C219.259 17.5273 219.02 17.4156 218.692 17.2964C218.379 17.1623 217.97 17.0282 217.463 16.8941C216.599 16.6706 215.891 16.4173 215.34 16.1342C214.789 15.8512 214.364 15.5308 214.066 15.1732C213.843 14.8902 213.679 14.5847 213.575 14.257C213.47 13.9143 213.418 13.5418 213.418 13.1395C213.418 12.6479 213.522 12.2009 213.731 11.7986C213.954 11.3814 214.252 11.0238 214.625 10.7259C215.012 10.413 215.459 10.1746 215.966 10.0107C216.487 9.84682 217.039 9.76488 217.62 9.76488C218.171 9.76488 218.715 9.83937 219.251 9.98836C219.802 10.1374 220.309 10.3534 220.771 10.6365C221.233 10.9196 221.62 11.2548 221.933 11.6422L220.614 13.0948C220.331 12.8117 220.018 12.5659 219.676 12.3573C219.348 12.1338 219.013 11.9625 218.67 11.8433C218.327 11.7241 218.014 11.6645 217.731 11.6645C217.418 11.6645 217.135 11.6943 216.882 11.7539C216.629 11.8135 216.413 11.9029 216.234 12.0221C216.07 12.1413 215.943 12.2903 215.854 12.4691C215.765 12.6479 215.72 12.849 215.72 13.0725C215.735 13.2662 215.78 13.4524 215.854 13.6312C215.943 13.7951 216.063 13.9366 216.212 14.0558C216.376 14.175 216.621 14.3017 216.949 14.4357C217.277 14.5698 217.694 14.6965 218.201 14.8157C218.946 15.0094 219.557 15.2254 220.033 15.4638C220.525 15.6873 220.912 15.948 221.195 16.246C221.493 16.5291 221.702 16.8568 221.821 17.2293C221.94 17.6018 222 18.019 222 18.4809C222 19.1513 221.806 19.7547 221.419 20.2911C221.046 20.8126 220.54 21.2223 219.899 21.5203C219.259 21.8182 218.543 21.9672 217.754 21.9672Z" fill="black"/>
<defs>
<clipPath id="clip0_4_29">
<rect width="33.1867" height="27.3302" fill="white"/>
</clipPath>
</defs>
</svg>
